<svg xmlns:xlink="http://www.w3.org/1999/xlink" xmlns="http://www.w3.org/2000/svg" viewBox="0 0 24 24" aria-hidden="true" class="r-4qtqp9 r-yyyyoo r-dnmrzs r-bnwqim r-1plcrui r-lrvibr r-18jsvk2 r-1q142lx r-1kihuf0 r-1472mwg r-mbgqwd r-lrsllp" data-testid="icon" width="24"  height="24" ><g fill="#0F1419"><path d="M8 18V6H4.5c-.28 0-.5.22-.5.5v11c0 .28.22.5.5.5H8zm11.5 0c.28 0 .5-.22.5-.5v-11c0-.28-.22-.5-.5-.5H16v12h3.5zM10 6v12h4V6h-4zM4.5 20C3.12 20 2 18.88 2 17.5v-11C2 5.12 3.12 4 4.5 4h15C20.88 4 22 5.12 22 6.5v11c0 1.38-1.12 2.5-2.5 2.5h-15z" fill="#0F1419"></path></g></svg>